<?xml version="1.0" encoding="iso-8859-1"?>
<!-- Generator: Adobe Illustrator 19.0.0, SVG Export Plug-In . SVG Version: 6.00 Build 0)  -->
<svg version="1.1" id="Capa_1" xmlns="http://www.w3.org/2000/svg" xmlns:xlink="http://www.w3.org/1999/xlink" x="0px" y="0px"
	 viewBox="0 0 480 480" style="enable-background:new 0 0 480 480;" xml:space="preserve">
<g>
	<g>
		<g>
			<path d="M472,0H8C3.582,0,0,3.582,0,8v400c0,4.418,3.582,8,8,8h192v48h-40v16h160v-16h-40v-48h192c4.418,0,8-3.582,8-8V8
				C480,3.582,476.418,0,472,0z M264,464h-48v-48h48V464z M464,400H16V16h448V400z"/>
			<path d="M32,392h416c4.418,0,8-3.582,8-8V32c0-4.418-3.582-8-8-8H32c-4.418,0-8,3.582-8,8v352C24,388.418,27.582,392,32,392z
				 M40,40h400v160h-48c-3.866-0.001-7.18,2.764-7.872,6.568L376,251.28l-8.128-44.712c-0.692-3.804-4.006-6.569-7.872-6.568h-9.224
				l-14.888-89.32c-0.737-4.356-4.866-7.291-9.222-6.554c-3.357,0.568-5.986,3.197-6.554,6.554L305.224,200H296
				c-4.152-0.017-7.626,3.145-8,7.28l-2.68,29.448l-5.48-30.16c-0.69-3.792-3.986-6.553-7.84-6.568h-9.224l-14.888-89.32
				c-0.737-4.356-4.866-7.291-9.222-6.554c-3.357,0.568-5.986,3.197-6.554,6.554L217.224,200H208c-4.152-0.017-7.626,3.145-8,7.28
				l-2.68,29.448l-5.48-30.16c-0.69-3.792-3.986-6.553-7.84-6.568h-9.224l-14.888-89.32c-0.732-4.357-4.858-7.296-9.215-6.563
				c-3.133,0.527-5.658,2.858-6.433,5.939L121.752,200H112c-3.57,0.002-6.706,2.368-7.688,5.8l-5.968,20.856l-10.4-67.872
				c-0.673-4.367-4.758-7.361-9.125-6.688c-2.963,0.457-5.423,2.532-6.371,5.376L58.232,200H40V40z M40,216h24
				c3.445,0.001,6.503-2.204,7.592-5.472l5.536-16.608l10.968,71.296c0.68,4.366,4.77,7.354,9.136,6.674
				c3.076-0.479,5.594-2.699,6.456-5.69l14.344-50.2H128c3.669,0,6.868-2.497,7.76-6.056l14.64-58.688l9.68,58.064
				c0.647,3.866,4,6.695,7.92,6.68h9.328l14.8,81.432c0.718,4.359,4.834,7.312,9.194,6.593c3.646-0.601,6.406-3.62,6.678-7.305
				l7.304-80.72H224c3.908-0.001,7.243-2.826,7.888-6.68L240,160.664l8.112,48.656c0.645,3.854,3.98,6.679,7.888,6.68h9.328
				l14.8,81.432c0.692,3.804,4.006,6.569,7.872,6.568h0.352c4.016-0.161,7.289-3.277,7.648-7.28l7.304-80.72H312
				c3.908-0.001,7.243-2.826,7.888-6.68L328,160.664l8.112,48.656c0.645,3.854,3.98,6.679,7.888,6.68h9.328l14.8,81.432
				c0.787,4.348,4.95,7.234,9.297,6.447c3.283-0.594,5.852-3.164,6.447-6.447l14.8-81.432H440v160H40V216z"/>
		</g>
	</g>
</g>
<g>
</g>
<g>
</g>
<g>
</g>
<g>
</g>
<g>
</g>
<g>
</g>
<g>
</g>
<g>
</g>
<g>
</g>
<g>
</g>
<g>
</g>
<g>
</g>
<g>
</g>
<g>
</g>
<g>
</g>
</svg>
