<?xml version="1.0" encoding="iso-8859-1"?>
<!-- Generator: Adobe Illustrator 19.0.0, SVG Export Plug-In . SVG Version: 6.00 Build 0)  -->
<svg version="1.1" id="Capa_1" xmlns="http://www.w3.org/2000/svg" xmlns:xlink="http://www.w3.org/1999/xlink" x="0px" y="0px"
	 viewBox="0 0 480 480" style="enable-background:new 0 0 480 480;" xml:space="preserve">
<g>
	<g>
		<path d="M476,44.104l-64-36.92c-2.475-1.429-5.525-1.429-8,0l-56.752,32.8l-29.6-29.6L306.344,21.64L336,51.296v73.376
			l-13.656,13.656l11.312,11.312l13.6-13.6L400,166.504v41.48h16v-41.48l60-34.64c2.475-1.429,4-4.07,4-6.928V51.032
			C480,48.174,478.475,45.533,476,44.104z M464,120.32l-56,32.328l-56-32.328V55.648l56-32.328l56,32.328V120.32z"/>
	</g>
</g>
<g>
	<g>
		<path d="M144,428.672v-73.376l13.656-13.656l-11.312-11.312l-13.6,13.6L80,313.464v-25.48H64v25.48l-60,34.64
			c-2.475,1.429-4,4.07-4,6.928v73.904c0,2.858,1.525,5.499,4,6.928l64,36.952c2.475,1.429,5.525,1.429,8,0l56.752-32.8l17.6,17.6
			l11.312-11.312L144,428.672z M128,424.32l-56,32.328L16,424.32v-64.672l56-32.328l56,32.328V424.32z"/>
	</g>
</g>
<g>
	<g>
		<path d="M440,315.296l21.656-21.656l-11.312-11.312l-21.6,21.6L376,273.464v-70.168l21.656-21.656l-11.312-11.312l-21.6,21.6
			L312,161.464v-41.48h-16v41.48l-56,32.328l-56-32.328V91.296l29.656-29.656l-11.312-11.312l-29.6,29.6L120,49.464V7.984h-16v41.48
			L51.248,79.92l-25.6-25.6L14.344,65.64L40,91.296v73.376l-29.656,29.656l11.312,11.312l29.6-29.6L104,206.504v70.168
			l-21.656,21.656l11.312,11.312l21.6-21.6L168,318.504v41.48h16v-41.48l56-32.328l56,32.328v70.168l-17.656,17.656l11.312,11.312
			l17.6-17.6L360,430.504v41.48h16v-41.48l52.752-30.456l17.6,17.6l11.312-11.312L440,388.672V315.296z M112,192.648L56,160.32
			V95.648l56-32.328l56,32.328v64.672L112,192.648z M232,272.32l-56,32.328l-56-32.328v-64.672l56-32.328l56,32.328V272.32z
			 M304,304.648l-56-32.328v-64.672l56-32.328l56,32.328v64.672L304,304.648z M424,384.32l-56,32.328l-56-32.328v-64.672l56-32.328
			l56,32.328V384.32z"/>
	</g>
</g>
<g>
</g>
<g>
</g>
<g>
</g>
<g>
</g>
<g>
</g>
<g>
</g>
<g>
</g>
<g>
</g>
<g>
</g>
<g>
</g>
<g>
</g>
<g>
</g>
<g>
</g>
<g>
</g>
<g>
</g>
</svg>
