<svg height="512" viewBox="0 0 64 64" width="512" xmlns="http://www.w3.org/2000/svg"><g id="full"><path d="m46 8h-6v-3a3 3 0 0 0 -3-3h-10a3 3 0 0 0 -3 3v3h-6a3 3 0 0 0 -3 3v48a3 3 0 0 0 3 3h28a3 3 0 0 0 3-3v-48a3 3 0 0 0 -3-3zm-20-3a1 1 0 0 1 1-1h10a1 1 0 0 1 1 1v3h-12zm21 54a1 1 0 0 1 -1 1h-28a1 1 0 0 1 -1-1v-48a1 1 0 0 1 1-1h28a1 1 0 0 1 1 1z"/><path d="m44 12h-24a1 1 0 0 0 -1 1v12a1 1 0 0 0 1 1h24a1 1 0 0 0 1-1v-12a1 1 0 0 0 -1-1zm-1 12h-22v-10h22z"/><path d="m44 28h-24a1 1 0 0 0 -1 1v12a1 1 0 0 0 1 1h24a1 1 0 0 0 1-1v-12a1 1 0 0 0 -1-1zm-1 12h-22v-10h22z"/><path d="m44 44h-24a1 1 0 0 0 -1 1v12a1 1 0 0 0 1 1h24a1 1 0 0 0 1-1v-12a1 1 0 0 0 -1-1zm-1 12h-22v-10h22z"/><path d="m40 15h2v2h-2z"/><path d="m40 31h2v2h-2z"/><path d="m40 47h2v2h-2z"/></g></svg>